<svg width="75" height="75" viewBox="0 0 75 75" fill="none" xmlns="http://www.w3.org/2000/svg">
<path fill-rule="evenodd" clip-rule="evenodd" d="M37 0C32.7517 0 29.3077 3.71832 29.3077 8.30508C29.3077 11.7107 31.2063 14.6375 33.9231 15.9192V22.4342C26.3957 22.4862 20.8229 22.7239 16.9894 22.9667C11.9918 23.2833 7.94678 27.2985 7.5222 32.7993C7.24175 36.4324 7 41.4988 7 48.1695C7 54.8401 7.24177 59.9066 7.5222 63.5397C7.94678 69.0405 11.9918 73.0557 16.9895 73.3723C21.3278 73.6472 27.8942 73.9153 37 73.9153C46.1058 73.9153 52.6722 73.6472 57.0105 73.3723C62.0082 73.0557 66.0532 69.0405 66.4778 63.5397C66.7582 59.9066 67 54.8401 67 48.1695C67 41.4988 66.7582 36.4324 66.4778 32.7993C66.0532 27.2985 62.0082 23.2833 57.0105 22.9667C53.1771 22.7239 47.6042 22.4862 40.0769 22.4342V15.9192C42.7937 14.6375 44.6923 11.7107 44.6923 8.30508C44.6923 3.71832 41.2483 0 37 0ZM29.3077 39.8644C29.3077 38.0296 27.9302 36.5424 26.2308 36.5424C24.5314 36.5424 23.1538 38.0296 23.1538 39.8644V41.5254C23.1538 43.3602 24.5314 44.8475 26.2308 44.8475C27.9302 44.8475 29.3077 43.3602 29.3077 41.5254V39.8644ZM47.7692 36.5424C46.0698 36.5424 44.6923 38.0296 44.6923 39.8644V41.5254C44.6923 43.3602 46.0698 44.8475 47.7692 44.8475C49.4686 44.8475 50.8462 43.3602 50.8462 41.5254V39.8644C50.8462 38.0296 49.4686 36.5424 47.7692 36.5424ZM25.6585 54.0575C27.144 52.5453 28.8349 53.2163 30.2105 54.3714C30.4422 54.5659 30.8372 54.8632 31.4029 55.1728C32.5209 55.7853 34.3545 56.4746 37 56.4746C39.6455 56.4746 41.4791 55.7853 42.5971 55.1728C43.1628 54.8632 43.5578 54.5659 43.7895 54.3714C45.1651 53.2163 46.856 52.5453 48.3415 54.0575C49.6205 55.3594 49.5805 57.5713 48.36 58.8742C48.3108 58.9267 48.2489 58.9909 48.174 59.0651C48.0245 59.2133 47.8228 59.4016 47.5677 59.6159C47.0575 60.0443 46.3318 60.5775 45.3809 61.0983C43.466 62.1469 40.6842 63.1186 37 63.1186C33.3158 63.1186 30.534 62.1469 28.6191 61.0983C27.6682 60.5775 26.9425 60.0443 26.4323 59.6159C26.1772 59.4016 25.9755 59.2133 25.826 59.0651C24.5155 57.7668 24.2588 55.4823 25.6585 54.0575Z" fill="#C24914"/>
</svg>
