<svg width="60" height="74" viewBox="0 0 60 74" fill="none" xmlns="http://www.w3.org/2000/svg">
<path fill-rule="evenodd" clip-rule="evenodd" d="M30 0C25.7517 0 22.3077 3.71832 22.3077 8.30508C22.3077 11.7107 24.2063 14.6375 26.9231 15.9192V22.4342C19.3957 22.4862 13.8229 22.7239 9.98939 22.9667C4.9918 23.2833 0.946784 27.2985 0.5222 32.7993C0.241754 36.4324 0 41.4988 0 48.1695C0 54.8401 0.241769 59.9066 0.5222 63.5397C0.946784 69.0405 4.9918 73.0557 9.98954 73.3723C14.3278 73.6472 20.8942 73.9153 30 73.9153C39.1058 73.9153 45.6722 73.6472 50.0105 73.3723C55.0082 73.0557 59.0532 69.0405 59.4778 63.5397C59.7582 59.9066 60 54.8401 60 48.1695C60 41.4988 59.7582 36.4324 59.4778 32.7993C59.0532 27.2985 55.0082 23.2833 50.0105 22.9667C46.1771 22.7239 40.6042 22.4862 33.0769 22.4342V15.9192C35.7937 14.6375 37.6923 11.7107 37.6923 8.30508C37.6923 3.71832 34.2483 0 30 0ZM22.3077 39.8644C22.3077 38.0296 20.9302 36.5424 19.2308 36.5424C17.5314 36.5424 16.1538 38.0296 16.1538 39.8644V41.5254C16.1538 43.3602 17.5314 44.8475 19.2308 44.8475C20.9302 44.8475 22.3077 43.3602 22.3077 41.5254V39.8644ZM40.7692 36.5424C39.0698 36.5424 37.6923 38.0296 37.6923 39.8644V41.5254C37.6923 43.3602 39.0698 44.8475 40.7692 44.8475C42.4686 44.8475 43.8462 43.3602 43.8462 41.5254V39.8644C43.8462 38.0296 42.4686 36.5424 40.7692 36.5424ZM18.6585 54.0575C20.144 52.5453 21.8349 53.2163 23.2105 54.3714C23.4422 54.5659 23.8372 54.8632 24.4029 55.1728C25.5209 55.7853 27.3545 56.4746 30 56.4746C32.6455 56.4746 34.4791 55.7853 35.5971 55.1728C36.1628 54.8632 36.5578 54.5659 36.7895 54.3714C38.1651 53.2163 39.856 52.5453 41.3415 54.0575C42.6205 55.3594 42.5805 57.5713 41.36 58.8742C41.3108 58.9267 41.2489 58.9909 41.174 59.0651C41.0245 59.2133 40.8228 59.4016 40.5677 59.6159C40.0575 60.0443 39.3318 60.5775 38.3809 61.0983C36.466 62.1469 33.6842 63.1186 30 63.1186C26.3158 63.1186 23.534 62.1469 21.6191 61.0983C20.6682 60.5775 19.9425 60.0443 19.4323 59.6159C19.1772 59.4016 18.9755 59.2133 18.826 59.0651C17.5155 57.7668 17.2588 55.4823 18.6585 54.0575Z" fill="#C24914"/>
</svg>
